HIERARCHY
ROOT Hips
{
	OFFSET	0.000000	0.000000	0.000000
	CHANNELS	6	Xposition	Yposition	Zposition	Zrotation	Xrotation	Yrotation
	JOINT LeftHip
	{
		OFFSET	15.500000	-8.200000	0.000000
		CHANNELS	3	Zrotation	Xrotation	Yrotation
		JOINT LeftKnee
		{
			OFFSET	0.000000	-41.000000	0.000000
			CHANNELS	3	Zrotation	Xrotation	Yrotation
			JOINT LeftAnkle
			{
				OFFSET	0.000000	-41.500000	0.000000
				CHANNELS	3	Zrotation	Xrotation	Yrotation
				End Site
				{
					OFFSET	0.000000	0.000000	22.875000
				}
			}
		}
	}
	JOINT RightHip
	{
		OFFSET	-15.500000	-8.200000	0.000000
		CHANNELS	3	Zrotation	Xrotation	Yrotation
		JOINT RightKnee
		{
			OFFSET	0.000000	-41.000000	0.000000
			CHANNELS	3	Zrotation	Xrotation	Yrotation
			JOINT RightAnkle
			{
				OFFSET	0.000000	-41.500000	0.000000
				CHANNELS	3	Zrotation	Xrotation	Yrotation
				End Site
				{
					OFFSET	0.000000	0.000000	22.875000
				}
			}
		}
	}
	JOINT Chest
	{
		OFFSET	0.000000	16.666667	0.000000
		CHANNELS	3	Zrotation	Xrotation	Yrotation
		JOINT LeftCollar
		{
			OFFSET	4.625000	33.333333	1.541667
			CHANNELS	3	Zrotation	Xrotation	Yrotation
			JOINT LeftShoulder
			{
				OFFSET	13.875000	0.000000	0.000000
				CHANNELS	3	Zrotation	Xrotation	Yrotation
				JOINT LeftElbow
				{
					OFFSET	0.000000	-28.000000	0.000000
					CHANNELS	3	Zrotation	Xrotation	Yrotation
					JOINT LeftWrist
					{
						OFFSET	0.000000	-25.000000	0.000000
						CHANNELS	3	Zrotation	Xrotation	Yrotation
						End Site
						{
							OFFSET	0.000000	-7.500000	0.000000
						}
					}
				}
			}
		}
		JOINT RightCollar
		{
			OFFSET	-4.625000	33.333333	1.541667
			CHANNELS	3	Zrotation	Xrotation	Yrotation
			JOINT RightShoulder
			{
				OFFSET	-13.875000	0.000000	0.000000
				CHANNELS	3	Zrotation	Xrotation	Yrotation
				JOINT RightElbow
				{
					OFFSET	0.000000	-28.000000	0.000000
					CHANNELS	3	Zrotation	Xrotation	Yrotation
					JOINT RightWrist
					{
						OFFSET	0.000000	-25.000000	0.000000
						CHANNELS	3	Zrotation	Xrotation	Yrotation
						End Site
						{
							OFFSET	0.000000	-7.500000	0.000000
						}
					}
				}
			}
		}
		JOINT Neck
		{
			OFFSET	0.000000	33.333333	0.000000
			CHANNELS	3	Zrotation	Xrotation	Yrotation
			JOINT Head
			{
				OFFSET	0.000000	12.000000	0.000000
				CHANNELS	3	Zrotation	Xrotation	Yrotation
				End Site
				{
					OFFSET	0.000000	15.000000	0.000000
				}
			}
		}
	}
}
MOTION
Frames:	31
Frame Time:	0.012000
-4.74	101.92	-59.40	-0.76	-0.42	-5.49	0.00	0.80	-0.17	0.00	0.00	0.00	0.21	29.74	-0.03	-0.23	-1.30	0.09	0.00	2.08	0.00	0.60	29.05	-0.46	0.20	-0.27	0.44	0.00	0.00	0.00	-27.14	-89.35	-26.49	0.83	-1.01	-0.95	0.14	0.08	0.00	0.00	0.00	0.00	-168.47	-88.43	-169.99	-0.09	-0.42	1.14	0.15	0.19	0.00	0.00	0.00	0.00	0.24	0.63	6.08
-4.73	101.91	-59.43	-0.76	-0.42	-5.49	0.00	0.80	-0.15	0.00	0.00	0.00	0.22	29.72	-0.03	-0.23	-1.32	0.11	0.00	2.10	0.00	0.61	29.00	-0.46	0.21	-0.28	0.44	0.00	0.00	0.00	-24.33	-89.43	-23.69	0.82	-1.01	-0.93	0.13	0.08	0.00	0.00	0.00	0.00	-167.91	-88.40	-169.45	-0.10	-0.41	1.16	0.15	0.19	0.00	0.00	0.00	0.00	0.24	0.64	6.08
-4.72	101.91	-59.45	-0.78	-0.42	-5.53	-0.01	0.81	-0.15	0.00	0.00	0.00	0.22	29.74	-0.03	-0.23	-1.34	0.11	0.00	2.12	0.00	0.62	28.98	-0.45	0.21	-0.30	0.44	0.00	0.00	0.00	-21.83	-89.41	-21.21	0.81	-1.03	-0.92	0.11	0.08	0.00	0.00	0.00	0.00	-167.50	-88.37	-169.04	-0.11	-0.40	1.17	0.14	0.19	0.00	0.00	0.00	0.00	0.28	0.62	6.14
-4.68	101.91	-59.46	-0.78	-0.42	-5.53	-0.01	0.81	-0.14	0.00	0.00	0.00	0.23	29.76	-0.01	-0.23	-1.34	0.12	0.00	2.13	0.00	0.61	28.99	-0.46	0.21	-0.31	0.44	0.00	0.00	0.00	-23.08	-89.44	-22.45	0.80	-1.00	-0.92	0.11	0.07	0.00	0.00	0.00	0.00	-167.02	-88.31	-168.56	-0.12	-0.39	1.18	0.15	0.19	0.00	0.00	0.00	0.00	0.28	0.64	6.14
-4.68	101.91	-59.46	-0.78	-0.42	-5.53	-0.01	0.81	-0.14	0.00	0.00	0.00	0.22	29.75	-0.01	-0.35	-0.52	3.14	0.27	0.49	-3.03	0.55	29.83	-0.34	0.20	-0.31	0.42	0.00	0.00	0.00	-22.37	-89.44	-21.72	0.79	-1.02	-0.91	0.10	0.07	0.00	0.00	0.00	0.00	-166.14	-88.30	-167.68	-0.13	-0.38	1.20	0.15	0.19	0.00	0.00	0.00	0.00	0.29	0.64	6.16
-4.68	101.91	-59.46	-0.79	-0.41	-5.55	-0.01	0.81	-0.14	0.00	0.00	0.00	0.22	29.74	-0.02	-0.23	-1.35	0.10	0.00	2.14	0.00	0.61	29.01	-0.46	0.20	-0.32	0.42	0.00	0.00	0.00	-22.71	-89.45	-22.06	0.78	-1.02	-0.94	0.11	0.07	0.00	0.00	0.00	0.00	-165.70	-88.27	-167.24	-0.13	-0.36	1.21	0.16	0.19	0.00	0.00	0.00	0.00	0.34	0.62	6.20
-4.68	101.91	-59.44	-0.79	-0.41	-5.55	-0.02	0.80	-0.12	0.00	0.00	0.00	0.23	29.74	-0.02	-0.23	-1.36	0.13	0.00	2.14	0.00	0.62	28.99	-0.45	0.21	-0.34	0.42	0.00	0.00	0.00	-23.72	-89.49	-23.09	0.77	-1.02	-0.96	0.12	0.07	0.00	0.00	0.00	0.00	-165.46	-88.25	-167.04	-0.13	-0.37	1.22	0.16	0.19	0.00	0.00	0.00	0.00	0.33	0.64	6.20
-4.67	101.91	-59.45	-0.79	-0.41	-5.55	-0.01	0.80	-0.11	0.00	0.00	0.00	0.24	29.73	-0.07	-0.23	-1.36	0.12	0.00	2.14	0.00	0.62	29.01	-0.45	0.21	-0.34	0.41	0.00	0.00	0.00	-27.91	-89.51	-27.27	0.80	-0.94	-0.91	0.12	0.07	0.00	0.00	0.00	0.00	-165.03	-88.24	-166.61	-0.13	-0.36	1.23	0.16	0.20	0.00	0.00	0.00	0.00	0.33	0.64	6.20
-4.67	101.91	-59.45	-0.78	-0.42	-5.58	-0.01	0.81	-0.09	0.00	0.00	0.00	0.23	29.73	-0.07	-0.23	-1.36	0.11	0.00	2.14	0.00	0.62	29.00	-0.48	0.21	-0.34	0.41	0.00	0.00	0.00	-28.83	-89.51	-28.20	0.79	-0.94	-0.92	0.12	0.07	0.00	0.00	0.00	0.00	-164.78	-88.23	-166.38	-0.14	-0.38	1.25	0.15	0.20	0.00	0.00	0.00	0.00	0.38	0.62	6.25
-4.68	101.91	-59.45	-0.78	-0.42	-5.58	0.00	0.81	-0.09	0.00	0.00	0.00	0.22	29.72	-0.05	-0.23	-1.36	0.09	0.00	2.15	0.00	0.62	29.04	-0.50	0.22	-0.35	0.40	0.00	0.00	0.00	-28.67	-89.55	-28.06	0.78	-0.94	-0.91	0.12	0.07	0.00	0.00	0.00	0.00	-164.64	-88.22	-166.25	-0.14	-0.40	1.25	0.14	0.20	0.00	0.00	0.00	0.00	0.37	0.63	6.26
-4.69	101.90	-59.44	-0.78	-0.42	-5.58	0.01	0.82	-0.08	0.00	0.00	0.00	0.22	29.74	-0.02	-0.24	-1.37	0.09	0.00	2.15	0.00	0.62	29.00	-0.51	0.21	-0.37	0.39	0.00	0.00	0.00	-30.70	-89.55	-30.11	0.78	-0.96	-0.95	0.12	0.07	0.00	0.00	0.00	0.00	-164.09	-88.19	-165.70	-0.15	-0.41	1.26	0.18	0.17	0.00	0.00	0.00	0.00	0.38	0.65	6.27
-4.69	101.90	-59.46	-0.79	-0.40	-5.60	0.01	0.83	-0.06	0.00	0.00	0.00	0.22	29.76	-0.01	-0.24	-1.38	0.10	0.00	2.16	0.00	0.63	29.02	-0.49	0.20	-0.38	0.37	0.00	0.00	0.00	-33.95	-89.55	-33.35	0.77	-0.94	-0.94	0.12	0.07	0.00	0.00	0.00	0.00	-163.33	-88.16	-164.93	-0.15	-0.40	1.26	0.19	0.17	0.00	0.00	0.00	0.00	0.41	0.60	6.26
-4.67	101.90	-59.44	-0.79	-0.40	-5.60	0.02	0.86	-0.06	0.00	0.00	0.00	0.22	29.75	-0.03	-0.24	-1.37	0.07	0.00	2.19	0.00	0.62	28.98	-0.46	0.19	-0.38	0.37	0.00	0.00	0.00	-32.86	-89.55	-32.26	0.77	-0.94	-0.93	0.11	0.07	0.00	0.00	0.00	0.00	-163.13	-88.10	-164.74	-0.13	-0.27	1.34	0.17	0.18	0.00	0.00	0.00	0.00	0.41	0.61	6.26
-4.67	101.90	-59.41	-0.79	-0.40	-5.60	0.03	0.87	-0.05	0.00	0.00	0.00	0.22	29.74	-0.04	-0.24	-1.37	0.07	0.00	2.19	0.00	0.62	29.00	-0.47	0.21	-0.39	0.38	0.00	0.00	0.00	-30.47	-89.54	-29.87	0.75	-1.00	-0.97	0.11	0.07	0.00	0.00	0.00	0.00	-163.37	-88.09	-164.99	-0.13	-0.27	1.34	0.13	0.21	0.00	0.00	0.00	0.00	0.40	0.62	6.25
-4.67	101.90	-59.40	-0.79	-0.40	-5.60	0.04	0.88	-0.04	0.00	0.00	0.00	0.22	29.71	-0.05	-0.24	-1.37	0.07	0.00	2.20	0.00	0.62	28.97	-0.47	0.21	-0.40	0.37	0.00	0.00	0.00	-39.74	-89.59	-39.13	0.76	-0.95	-0.97	0.11	0.08	0.00	0.00	0.00	0.00	-163.25	-88.08	-164.89	-0.13	-0.26	1.33	0.14	0.21	0.00	0.00	0.00	0.00	0.32	0.61	6.28
-4.68	101.90	-59.39	-0.79	-0.40	-5.60	0.05	0.88	-0.05	0.00	0.00	0.00	0.22	29.71	-0.04	-0.24	-1.36	0.07	0.00	2.20	0.00	0.62	28.99	-0.48	0.20	-0.41	0.36	0.00	0.00	0.00	-39.30	-89.59	-38.67	0.75	-0.93	-0.99	0.12	0.08	0.00	0.00	0.00	0.00	-163.06	-88.13	-164.69	-0.16	-0.39	1.25	0.16	0.20	0.00	0.00	0.00	0.00	0.33	0.61	6.28
-4.69	101.90	-59.38	-0.79	-0.40	-5.60	0.05	0.89	-0.04	0.00	0.00	0.00	0.22	29.71	-0.03	-0.23	-1.35	0.07	0.00	2.19	0.00	0.64	28.97	-0.45	0.20	-0.41	0.36	0.00	0.00	0.00	-40.33	-89.59	-39.70	0.76	-0.91	-1.00	0.12	0.08	0.00	0.00	0.00	0.00	-162.63	-88.11	-164.27	-0.16	-0.38	1.23	0.17	0.20	0.00	0.00	0.00	0.00	0.32	0.62	6.29
-4.68	101.90	-59.37	-0.80	-0.40	-5.64	0.06	0.90	-0.05	0.00	0.00	0.00	0.21	29.69	-0.01	-0.23	-1.35	0.09	0.00	2.19	0.00	0.65	28.96	-0.43	0.21	-0.41	0.36	0.00	0.00	0.00	-38.47	-89.58	-37.84	0.75	-0.92	-1.00	0.13	0.08	0.00	0.00	0.00	0.00	-162.37	-88.10	-164.00	-0.16	-0.37	1.22	0.19	0.20	0.00	0.00	0.00	0.00	0.26	0.63	6.41
-4.66	101.90	-59.37	-0.80	-0.40	-5.64	0.07	0.90	-0.05	0.00	0.00	0.00	0.20	29.68	-0.02	-0.24	-1.36	0.09	0.00	2.21	0.00	0.66	28.93	-0.42	0.20	-0.41	0.35	0.00	0.00	0.00	-37.25	-89.57	-36.59	0.75	-0.91	-0.99	0.13	0.07	0.00	0.00	0.00	0.00	-162.35	-88.08	-163.98	-0.16	-0.36	1.21	0.20	0.19	0.00	0.00	0.00	0.00	0.26	0.63	6.41
-4.65	101.90	-59.37	-0.80	-0.40	-5.64	0.08	0.91	-0.06	0.00	0.00	0.00	0.21	29.67	-0.01	-0.24	-1.37	0.10	0.00	2.21	0.00	0.64	28.92	-0.43	0.21	-0.41	0.34	0.00	0.00	0.00	-38.93	-89.56	-38.29	0.75	-0.94	-0.98	0.14	0.07	0.00	0.00	0.00	0.00	-161.81	-88.07	-163.45	-0.15	-0.36	1.21	0.20	0.19	0.00	0.00	0.00	0.00	0.26	0.63	6.43
-4.65	101.90	-59.38	-0.81	-0.37	-5.65	0.10	0.92	-0.06	0.00	0.00	0.00	0.22	29.67	-0.01	-0.24	-1.38	0.11	0.00	2.23	0.00	0.64	28.92	-0.46	0.22	-0.42	0.35	0.00	0.00	0.00	-34.94	-89.57	-34.29	0.74	-0.99	-0.99	0.13	0.07	0.00	0.00	0.00	0.00	-161.88	-88.08	-163.53	-0.14	-0.37	1.22	0.19	0.19	0.00	0.00	0.00	0.00	0.26	0.63	6.47
-4.62	101.90	-59.33	-0.81	-0.37	-5.65	0.11	0.94	-0.07	0.00	0.00	0.00	0.23	29.68	-0.03	-0.24	-1.39	0.10	0.00	2.24	0.00	0.62	28.91	-0.46	0.20	-0.43	0.35	0.00	0.00	0.00	-33.60	-89.54	-32.96	0.72	-0.99	-0.99	0.13	0.07	0.00	0.00	0.00	0.00	-162.32	-88.06	-163.96	-0.14	-0.33	1.19	0.18	0.19	0.00	0.00	0.00	0.00	0.27	0.65	6.47
-4.62	101.90	-59.33	-0.81	-0.37	-5.65	0.12	0.95	-0.06	0.00	0.00	0.00	0.23	29.68	-0.04	-0.24	-1.38	0.11	0.00	2.25	0.00	0.62	28.91	-0.45	0.21	-0.43	0.35	0.00	0.00	0.00	-32.86	-89.55	-32.22	0.71	-0.99	-0.98	0.13	0.07	0.00	0.00	0.00	0.00	-161.99	-88.05	-163.64	-0.14	-0.33	1.18	0.18	0.19	0.00	0.00	0.00	0.00	0.26	0.65	6.48
-4.62	101.90	-59.31	-0.83	-0.39	-5.65	0.13	0.96	-0.07	0.00	0.00	0.00	0.22	29.67	-0.04	-0.25	-1.38	0.11	0.00	2.26	0.00	0.60	28.89	-0.43	0.20	-0.44	0.35	0.00	0.00	0.00	-32.87	-89.55	-32.21	0.71	-0.99	-0.99	0.13	0.07	0.00	0.00	0.00	0.00	-162.01	-88.02	-163.65	-0.14	-0.30	1.18	0.17	0.20	0.00	0.00	0.00	0.00	0.27	0.63	6.53
-4.59	101.90	-59.35	-0.83	-0.39	-5.65	0.13	0.98	-0.05	0.00	0.00	0.00	0.21	29.67	-0.03	-0.25	-1.40	0.11	0.00	2.27	0.00	0.60	28.91	-0.41	0.20	-0.44	0.35	0.00	0.00	0.00	-30.67	-89.56	-30.02	0.70	-1.00	-0.98	0.13	0.07	0.00	0.00	0.00	0.00	-162.35	-88.02	-163.99	-0.15	-0.29	1.18	0.17	0.20	0.00	0.00	0.00	0.00	0.27	0.64	6.52
-4.58	101.90	-59.35	-0.83	-0.39	-5.65	0.14	0.98	-0.05	0.00	0.00	0.00	0.20	29.67	-0.03	-0.25	-1.40	0.11	0.00	2.29	0.00	0.59	28.91	-0.41	0.17	-0.45	0.34	0.00	0.00	0.00	-29.47	-89.56	-28.77	0.69	-1.00	-0.98	0.12	0.07	0.00	0.00	0.00	0.00	-162.30	-88.00	-163.90	-0.16	-0.29	1.18	0.17	0.20	0.00	0.00	0.00	0.00	0.29	0.64	6.53
-4.58	101.90	-59.34	-0.82	-0.39	-5.66	0.15	0.99	-0.04	0.00	0.00	0.00	0.21	29.68	-0.04	-0.25	-1.39	0.09	0.00	2.30	0.00	0.57	28.91	-0.39	0.17	-0.46	0.34	0.00	0.00	0.00	-29.48	-89.58	-28.78	0.68	-1.00	-0.98	0.12	0.07	0.00	0.00	0.00	0.00	-162.41	-88.01	-164.02	-0.16	-0.31	1.19	0.17	0.20	0.00	0.00	0.00	0.00	0.22	0.62	6.57
-4.60	101.90	-59.34	-0.82	-0.39	-5.66	0.17	0.99	-0.03	0.00	0.00	0.00	0.20	29.69	-0.03	-0.25	-1.39	0.10	0.00	2.29	0.00	0.57	28.88	-0.39	0.17	-0.46	0.34	0.00	0.00	0.00	-29.15	-89.59	-28.45	0.68	-1.00	-0.98	0.12	0.07	0.00	0.00	0.00	0.00	-162.41	-88.01	-164.03	-0.17	-0.33	1.22	0.18	0.20	0.00	0.00	0.00	0.00	0.22	0.62	6.57
-4.59	101.90	-59.34	-0.82	-0.39	-5.66	0.18	0.99	-0.02	0.00	0.00	0.00	0.20	29.70	-0.01	-0.25	-1.39	0.10	0.00	2.29	0.00	0.58	28.86	-0.40	0.16	-0.46	0.34	0.00	0.00	0.00	-29.23	-89.60	-28.53	0.67	-0.99	-0.98	0.13	0.07	0.00	0.00	0.00	0.00	-162.43	-88.02	-164.04	-0.17	-0.35	1.23	0.19	0.20	0.00	0.00	0.00	0.00	0.22	0.63	6.57
-4.59	101.90	-59.34	-0.81	-0.40	-5.65	0.18	0.99	-0.01	0.00	0.00	0.00	0.20	29.72	0.01	-0.26	-1.39	0.11	0.00	2.29	0.00	0.59	28.84	-0.40	0.13	-0.49	0.35	0.00	0.00	0.00	-22.34	-89.61	-21.59	0.64	-1.03	-0.98	0.12	0.08	0.00	0.00	0.00	0.00	-163.27	-88.00	-164.84	-0.19	-0.36	1.23	0.18	0.20	0.00	0.00	0.00	0.00	0.22	0.64	6.54
-4.60	101.90	-59.35	-0.81	-0.40	-5.65	0.19	1.00	-0.02	0.00	0.00	0.00	0.20	29.72	0.00	-0.26	-1.39	0.10	0.00	2.30	0.00	0.57	28.85	-0.41	0.12	-0.49	0.35	0.00	0.00	0.00	-23.10	-89.62	-22.29	0.65	-1.06	-0.98	0.13	0.07	0.00	0.00	0.00	0.00	-162.96	-88.00	-164.51	-0.19	-0.35	1.24	0.15	0.22	0.00	0.00	0.00	0.00	0.23	0.64	6.54
